<svg width="36" height="41" viewBox="0 0 36 41" fill="none" xmlns="http://www.w3.org/2000/svg">
<path d="M0.236762 16.7155V16.7596V16.8642C0.236762 16.8642 0.236762 16.9027 0.236762 16.9247V16.9798V17.0129C0.236762 17.0789 0.236769 17.145 0.209239 17.2111C0.18171 17.2771 0.209239 17.3322 0.209239 17.3928V17.4643C0.209239 17.5359 0.209229 17.613 0.1817 17.6846C0.15417 17.7561 0.1817 17.7947 0.1817 17.8497V17.9048C0.178979 17.9249 0.178979 17.9453 0.1817 17.9654C0.179191 17.9892 0.179191 18.0132 0.1817 18.037C0.179124 18.0478 0.179124 18.0591 0.1817 18.07C0.184679 18.0882 0.184679 18.1068 0.1817 18.125V18.2187C0.1817 18.2957 0.1817 18.3728 0.1817 18.4664C0.1817 18.5049 0.1817 18.5435 0.1817 18.582C0.1817 18.6206 0.1817 18.6591 0.1817 18.6977V18.7527C0.1817 18.7968 0.1817 18.8408 0.1817 18.8849V18.9454C0.1817 19.028 0.1817 19.1051 0.1817 19.1822V19.496V19.8814C0.228506 23.7036 1.78639 27.3518 4.51488 30.0289C7.23267 32.7233 10.9069 34.2318 14.7339 34.2244C15.3431 34.2219 15.9517 34.1833 16.5564 34.1088C16.8262 34.0757 17.107 34.0372 17.3657 33.9876C15.3618 32.7734 13.6343 31.153 12.2948 29.2305C11.8069 28.5312 11.3743 27.7948 11.0009 27.0282C10.9128 26.8575 10.8357 26.6813 10.7586 26.5106C10.7472 26.4915 10.738 26.4712 10.7311 26.45C9.77915 24.3136 9.28944 22.0001 9.29403 19.6612C9.26178 16.3025 10.2464 13.0127 12.1186 10.224C12.5677 9.58139 13.0607 8.9706 13.5942 8.39605C15.3174 6.53178 17.4435 5.08552 19.8104 4.1675C20.5277 3.8889 21.2636 3.66077 22.0127 3.48477C23.2762 3.18994 24.5695 3.04214 25.8669 3.0443C28.861 3.03861 31.8013 3.83929 34.3791 5.36228L34.3075 5.29621L34.2139 5.20262H34.1808L34.0928 5.12002C34.0643 5.08788 34.033 5.05841 33.9992 5.03193L33.889 4.93283L33.845 4.88877H33.8175L33.6633 4.75113C33.6104 4.69716 33.5533 4.64744 33.4926 4.60246L33.4376 4.55292L33.3219 4.45382L33.2448 4.38775L33.2008 4.35472H33.1678L33.0301 4.24459L32.9255 4.16199L32.5896 3.89771C32.5562 3.87698 32.5248 3.85301 32.496 3.82613L32.4575 3.79861L32.3914 3.75455L32.3033 3.68849H32.2758L32.2262 3.65545H32.1932L32.0941 3.58387H32.0666C31.984 3.52331 31.9014 3.46274 31.8133 3.40768L31.6977 3.33059H31.6701L31.494 3.21498H31.4554L31.3343 3.13238L31.1471 3.01127L30.9544 2.89012L30.8498 2.82956H30.8057L30.7451 2.79101H30.7066L30.569 2.70841H30.5304H30.4864L30.3597 2.63683C30.0734 2.47716 29.7816 2.32301 29.4898 2.17435L29.2971 2.08076L29.1209 1.99816C28.9172 1.89905 28.73 1.81648 28.5703 1.7394L28.4437 1.67881H28.4051L28.328 1.64577L28.2454 1.61274H28.2069L27.7059 1.41453L27.6178 1.3815L27.5297 1.34846L26.7643 1.08967L26.6157 1.04564L26.467 0.996075H26.3734L26.0541 0.907994H26.01H25.944H25.4815L24.8373 0.748301L24.4519 0.665732C24.2316 0.616179 24.0169 0.572136 23.7967 0.533595L23.5544 0.489538L23.3121 0.450992H23.202H23.0589L22.3596 0.362912C21.9026 0.318865 21.4511 0.285805 20.9941 0.269287C20.7409 0.269287 20.4876 0.269287 20.2288 0.269287C19.8049 0.269287 19.3754 0.269297 18.9459 0.313344H18.8138C18.3403 0.34638 17.8723 0.395944 17.4043 0.462015L17.1565 0.500561L0.275308 17.3817L0.236762 16.7155Z" fill="white"/>
<path d="M35.5894 23.9869V23.9538C35.5921 23.9264 35.5921 23.8987 35.5894 23.8712V23.7611V23.7116C35.592 23.7007 35.592 23.6894 35.5894 23.6785V23.5519V23.4638C35.5894 23.3812 35.5894 23.2986 35.6169 23.2215C35.6169 23.15 35.617 23.0784 35.6445 23.0068V22.8361V22.7811C35.6472 22.7426 35.6472 22.7039 35.6445 22.6654V22.6324C35.6445 22.5828 35.6445 22.5333 35.6445 22.4782C35.6445 22.4067 35.6445 22.3296 35.6445 22.2415V22.0102V21.9221C35.6445 21.8561 35.6445 21.7955 35.6445 21.7294C35.6445 21.6634 35.6445 21.5532 35.6445 21.4706V21.4211C35.6445 21.3661 35.6445 21.3 35.6445 21.2394V20.843V20.7163C35.5944 16.8938 34.0348 13.2461 31.3058 10.5689C28.6274 7.92677 25.0252 6.43176 21.263 6.4009C20.3803 6.39923 19.4994 6.47848 18.6312 6.63766C20.6337 7.8375 22.3614 9.44517 23.7021 11.3562C25.6636 14.159 26.7116 17.4991 26.7028 20.9201C26.7109 24.3409 25.6629 27.6808 23.7021 30.4839C21.7954 33.2274 19.1106 35.337 15.9938 36.5404C14.0606 37.2796 12.0069 37.653 9.93728 37.6416C6.94249 37.6472 4.0017 36.8445 1.42511 35.3181L1.46364 35.3511L1.50218 35.3951L1.60129 35.4888L1.78299 35.6594L1.90412 35.7751L2.12436 35.9788L2.27301 36.1109H2.30605L2.44921 36.2376V36.2651C2.48716 36.2993 2.52766 36.3306 2.57034 36.3587L2.68596 36.4523L2.77405 36.5239L3.10992 36.7826L3.18149 36.8377L3.26409 36.9038L3.31364 36.9368H3.34116L3.4733 37.0359L3.51736 37.0635L3.58343 37.113L3.68253 37.1846H3.72108L3.97434 37.3608L4.08998 37.4379H4.1175L4.21111 37.4984L4.31021 37.5645L4.46438 37.6636L4.61855 37.7627H4.75068L4.97643 37.9829L5.08655 38.049L5.29578 38.1702L5.46646 38.2637C5.76378 38.4344 6.0666 38.5941 6.36943 38.7428L6.56765 38.8419L6.76034 38.93L7.31094 39.1887L7.44859 39.2493H7.49815L7.68535 39.3264L8.1864 39.5191L8.35157 39.5797L9.11139 39.8384L9.26004 39.888L9.48579 39.9596H9.54636L9.81615 40.0367L9.9538 40.0752C10.5044 40.2294 11.055 40.356 11.6386 40.4551L11.8699 40.4936L12.1011 40.5267L12.3379 40.5597C13.2736 40.6918 14.2174 40.7581 15.1624 40.7579C16.1092 40.7583 17.0549 40.692 17.9925 40.5597L18.2127 40.5267L35.5839 24.0199C35.5873 24.0152 35.5895 24.0097 35.5905 24.004C35.5914 23.9983 35.5911 23.9924 35.5894 23.9869Z" fill="white"/>
</svg>
